Coordinates
version=1
nRows=60
nColumns=12
inDegrees=yes

Units are S.I. units (second, meters, Newtons, ...)
Angles are in degrees

endheader
time	SC_y	SC_z	SC_x	AC_y	AC_z	AC_x	GH_y	GH_z	GH_yy	EL_x	PS_y
       0.0              -41.49          1.734          26.05          57.76         -2.129          2.462         -142.9          57.08         -164.8          92.49          42.17
   0.04921              -41.49          1.737          26.05          57.76         -2.129          2.459         -142.9          57.08         -164.7          92.49          42.17
   0.09842              -41.49           1.74          26.04          57.76         -2.129          2.455         -142.9          57.08         -164.7          92.48          42.17
    0.1476              -41.49          1.743          26.04          57.76         -2.129          2.452         -142.8          57.09         -164.6          92.48          42.17
    0.1968              -41.49          1.746          26.03          57.76          -2.13          2.448         -142.8          57.09         -164.6          92.47          42.16
    0.2461              -41.49           1.75          26.03          57.76          -2.13          2.444         -142.7          57.09         -164.5          92.47          42.16
    0.2953              -41.49          1.754          26.02          57.76          -2.13           2.44         -142.7           57.1         -164.4          92.46          42.16
    0.3445              -41.48          1.758          26.02          57.76          -2.13          2.436         -142.7           57.1         -164.4          92.45          42.16
    0.3937              -41.48          1.763          26.01          57.76          -2.13          2.431         -142.6          57.11         -164.3          92.45          42.16
    0.4429              -41.48          1.767          26.01          57.76         -2.131          2.426         -142.5          57.11         -164.2          92.44          42.16
    0.4921              -41.48          1.773           26.0          57.76         -2.131          2.421         -142.5          57.11         -164.1          92.43          42.15
    0.5413              -41.48          1.778          25.99          57.76         -2.131          2.415         -142.4          57.12         -164.0          92.42          42.15
    0.5905              -41.48          1.784          25.99          57.77         -2.132          2.408         -142.3          57.13         -163.9          92.41          42.15
    0.6397              -41.48          1.791          25.98          57.77         -2.132          2.401         -142.3          57.13         -163.8           92.4          42.15
    0.6889              -41.47          1.798          25.97          57.77         -2.132          2.394         -142.2          57.14         -163.7          92.39          42.14
    0.7382              -41.47          1.805          25.96          57.77         -2.133          2.386         -142.1          57.15         -163.6          92.38          42.14
    0.7874              -41.47          1.814          25.95          57.77         -2.133          2.377         -142.0          57.15         -163.5          92.37          42.14
    0.8366              -41.47          1.823          25.94          57.77         -2.133          2.368         -141.9          57.16         -163.3          92.35          42.13
    0.8858              -41.47          1.832          25.93          57.77         -2.134          2.357         -141.8          57.17         -163.1          92.34          42.13
     0.935              -41.46          1.843          25.91          57.77         -2.134          2.346         -141.6          57.18         -163.0          92.32          42.13
    0.9842              -41.46          1.855           25.9          57.77         -2.135          2.334         -141.5          57.19         -162.8           92.3          42.12
     1.033              -41.46          1.868          25.88          57.77         -2.136           2.32         -141.3          57.21         -162.6          92.28          42.12
     1.083              -41.45          1.882          25.86          57.77         -2.136          2.305         -141.2          57.22         -162.3          92.26          42.11
     1.132              -41.45          1.898          25.84          57.78         -2.137          2.288         -141.0          57.24         -162.1          92.23           42.1
     1.181              -41.44          1.916          25.82          57.78         -2.138          2.269         -140.8          57.25         -161.8          92.21           42.1
      1.23              -41.44          1.936           25.8          57.78         -2.139          2.248         -140.5          57.27         -161.4          92.18          42.09
     1.279              -41.43          1.958          25.77          57.78          -2.14          2.225         -140.3          57.29         -161.1          92.14          42.08
     1.329              -41.43          1.983          25.74          57.78         -2.141          2.199         -140.0          57.32         -160.7           92.1          42.07
     1.378              -41.42          2.011           25.7          57.79         -2.143          2.169         -139.6          57.34         -160.2          92.06          42.06
     1.427              -41.41          2.043          25.66          57.79         -2.144          2.135         -139.3          57.37         -159.7          92.01          42.05
     1.476               -41.4           2.08          25.62          57.79         -2.146          2.097         -138.8          57.41         -159.1          91.95          42.03
     1.526              -41.39          2.121          25.56           57.8         -2.148          2.052         -138.3          57.45         -158.4          91.88          42.02
     1.575              -41.38           2.17           25.5           57.8          -2.15          2.001         -137.7           57.5         -157.6          91.81           42.0
     1.624              -41.36          2.226          25.43          57.81         -2.153          1.942         -137.1          57.55         -156.7          91.72          41.98
     1.673              -41.34          2.292          25.35          57.82         -2.156          1.873         -136.3          57.61         -155.6          91.62          41.95
     1.722              -41.32          2.369          25.26          57.82          -2.16          1.791         -135.4          57.69         -154.3           91.5          41.92
     1.772               -41.3          2.461          25.14          57.83         -2.165          1.694         -134.3          57.78         -152.8          91.35          41.88
     1.821              -41.27          2.572           25.0          57.84          -2.17          1.577         -132.9          57.88         -151.0          91.18          41.84
      1.87              -41.23          2.705          24.84          57.86         -2.177          1.436         -131.4          58.01         -148.8          90.97          41.79
     1.919              -41.19          2.869          24.63          57.87         -2.185          1.264         -129.4          58.17         -146.1          90.72          41.73
     1.968              -41.14           3.07          24.38          57.89         -2.194          1.052         -127.0          58.36         -142.8           90.4          41.65
     2.018              -41.07          3.321          24.07          57.92         -2.207         0.7867         -124.0           58.6         -138.7          90.01          41.55
     2.067              -40.99          3.637          23.67          57.95         -2.222         0.4529         -120.2           58.9         -133.5          89.51          41.42
     2.116              -40.88          4.039          23.17          57.99         -2.242        0.02856         -115.4          59.29         -126.8          88.88          41.27
     2.165              -40.74          4.554          22.53          58.04         -2.267        -0.5145         -109.3          59.78         -118.4          88.08          41.07
     2.214              -40.57          5.215           21.7           58.1         -2.299         -1.212         -101.4          60.42         -107.5          87.04          40.81
     2.264              -40.35          6.058          20.65          58.19         -2.341         -2.102         -91.36          61.23         -93.65          85.72          40.48
     2.313              -40.07          7.119          19.33          58.29         -2.393         -3.221         -78.71          62.25          -76.2          84.06          40.06
     2.362              -39.72          8.412          17.72          58.42         -2.456         -4.585         -63.29          63.49         -54.94          82.04          39.56
     2.411              -39.33          9.911          15.85          58.56         -2.529         -6.167         -45.42          64.92          -30.3           79.7          38.97
     2.461               -38.9          11.53          13.82          58.72         -2.609         -7.879         -26.07          66.48         -3.614          77.16          38.33
      2.51              -38.47          13.16           11.8          58.88         -2.688         -9.591         -6.718          68.04          23.07          74.62           37.7
     2.559              -38.07          14.65          9.926          59.03         -2.762         -11.17          11.15          69.48          47.71          72.27          37.11
     2.608              -37.73          15.95          8.312          59.16         -2.825         -12.54          26.57          70.72          68.97          70.25          36.61
     2.657              -37.45          17.01          6.989          59.26         -2.877         -13.66          39.22          71.74          86.42          68.59          36.19
     2.707              -37.22          17.85          5.936          59.35         -2.918         -14.55          49.29          72.55          100.3          67.27          35.86
     2.756              -37.05          18.51          5.112          59.41          -2.95         -15.24          57.16          73.18          111.2          66.24           35.6
     2.805              -36.91          19.03          4.469          59.46         -2.976         -15.79           63.3          73.67          119.6          65.43           35.4
     2.854              -36.81          19.43          3.967           59.5         -2.995         -16.21           68.1          74.06          126.2           64.8          35.24
     2.903              -36.72          19.75          3.573          59.53         -3.011         -16.54          71.87          74.36          131.4          64.31          35.12
